<?xml version="1.0" encoding="utf-8"?>
<!-- Generator: Adobe Illustrator 26.0.2, SVG Export Plug-In . SVG Version: 6.00 Build 0)  -->
<svg version="1.1" id="Layer_1" xmlns="http://www.w3.org/2000/svg" xmlns:xlink="http://www.w3.org/1999/xlink" x="0px" y="0px"
	 viewBox="0 0 700 700" style="enable-background:new 0 0 700 700;" xml:space="preserve">
<style type="text/css">
	.st0{fill:#FFD273;}
</style>
<g>
	<path class="st0" d="M615.7,648.3H83.3c-28.4,0-50.1-10.5-61.1-29.6s-9.3-43.1,5-67.7L293.3,89.9c14.2-24.6,34.2-38.2,56.2-38.2
		s42,13.5,56.2,38.2L671.9,551c14.2,24.6,16,48.7,5,67.7C665.8,637.8,644.1,648.3,615.7,648.3L615.7,648.3z M349.5,85.1
		c-9.4,0-19.4,7.8-27.3,21.5L56,567.7c-7.9,13.6-9.7,26.2-5,34.3c4.7,8.2,16.5,12.9,32.2,12.9h532.4c15.8,0,27.5-4.7,32.2-12.9
		s2.9-20.7-5-34.3l-266-461.1C368.9,92.9,358.9,85.1,349.5,85.1L349.5,85.1z"/>
	<path class="st0" d="M388.4,258.4c0,9.2-1.5,17.4-4.6,36.8c-9.2,55.7-15.9,109.9-23.5,167.1c-1,6.1-21,6.7-22,0
		c-7.7-57.2-14.8-111.4-23.5-167.1c-3-19.4-4.1-27.6-4.1-36.8c0-11.8,7.7-20.5,38.8-20.5C379.6,237.9,388.4,246.6,388.4,258.4
		L388.4,258.4z M311.7,538.4c0-23,16.3-39.9,38.3-39.9c21.5,0,37.8,16.8,37.8,39.9c0,24-16.4,40.4-37.8,40.4
		C328,578.8,311.7,562.4,311.7,538.4z"/>
</g>
</svg>
