<?xml version="1.0" encoding="utf-8"?>
<!-- Generator: Adobe Illustrator 26.0.2, SVG Export Plug-In . SVG Version: 6.00 Build 0)  -->
<svg version="1.1" id="Layer_1" xmlns="http://www.w3.org/2000/svg" xmlns:xlink="http://www.w3.org/1999/xlink" x="0px" y="0px"
	 viewBox="0 0 201.5 21.5" style="enable-background:new 0 0 201.5 21.5;" xml:space="preserve">
<style type="text/css">
	.st0{fill:none;stroke:#000000;stroke-miterlimit:10;}
	.st1{fill-rule:evenodd;clip-rule:evenodd;}
</style>
<g>
	<g>
		<g>
			<g>
				<g>
					<g id="XMLID_250_">
						<path class="st0" d="M419.1-1157.4L419.1-1157.4c-10.7,0-19.5-8.7-19.5-19.5l0,0c0-10.7,8.7-19.5,19.5-19.5l0,0
							c10.7,0,19.5,8.7,19.5,19.5l0,0C438.5-1166.1,429.8-1157.4,419.1-1157.4z"/>
					</g>
				</g>
				<g id="XMLID_245_">
					<g>
						<g id="XMLID_247_">
							<rect id="XMLID_249_" x="410.8" y="-1180.7" width="3.6" height="11.5"/>
							<path id="XMLID_248_" d="M412.6-1182.2c1.2,0,2.1-1,2.1-2.1s-0.9-2.1-2.1-2.1s-2.1,1-2.1,2.1S411.4-1182.2,412.6-1182.2z"/>
						</g>
						<path id="XMLID_246_" d="M420.1-1175.2c0-1.6,0.7-2.6,2.2-2.6c1.3,0,1.9,0.9,1.9,2.6s0,6.1,0,6.1h3.6c0,0,0-4.2,0-7.3
							c0-3.1-1.8-4.6-4.2-4.6c-2.4,0-3.5,1.9-3.5,1.9v-1.6h-3.4v11.5h3.4C420.1-1169.2,420.1-1173.4,420.1-1175.2z"/>
					</g>
				</g>
			</g>
		</g>
		<g>
			<g>
				<g id="XMLID_244_">
					<path class="st0" d="M469.3-1157.4L469.3-1157.4c-10.7,0-19.5-8.7-19.5-19.5l0,0c0-10.7,8.7-19.5,19.5-19.5l0,0
						c10.7,0,19.5,8.7,19.5,19.5l0,0C488.8-1166.1,480.1-1157.4,469.3-1157.4z"/>
				</g>
				<g id="XMLID_243_">
					<path d="M466.7-1166.4h4.2v-10.5h2.9l0.3-3.5h-3.2c0,0,0-1.3,0-2c0-0.8,0.2-1.2,1-1.2c0.6,0,2.3,0,2.3,0v-3.7c0,0-2.4,0-2.9,0
						c-3.1,0-4.5,1.4-4.5,4c0,2.3,0,2.8,0,2.8h-2.2v3.6h2.2L466.7-1166.4L466.7-1166.4z"/>
				</g>
			</g>
		</g>
		<g>
			<g>
				<g>
					<g id="XMLID_242_">
						<path class="st0" d="M368.8-1157.4L368.8-1157.4c-10.7,0-19.5-8.7-19.5-19.5l0,0c0-10.7,8.7-19.5,19.5-19.5l0,0
							c10.7,0,19.5,8.7,19.5,19.5l0,0C388.3-1166.1,379.6-1157.4,368.8-1157.4z"/>
					</g>
				</g>
				<g id="XMLID_234_">
					<g>
						<path id="XMLID_239_" d="M368.8-1184.6c2.5,0,2.8,0,3.8,0.1c0.9,0,1.4,0.2,1.8,0.3c0.4,0.2,0.8,0.4,1.1,0.7
							c0.3,0.3,0.5,0.6,0.7,1.1c0.1,0.3,0.3,0.8,0.3,1.8s0.1,1.3,0.1,3.8s0,2.8-0.1,3.8c0,0.9-0.2,1.4-0.3,1.8
							c-0.2,0.4-0.4,0.8-0.7,1.1c-0.3,0.3-0.6,0.5-1.1,0.7c-0.3,0.1-0.8,0.3-1.8,0.3s-1.3,0.1-3.8,0.1s-2.8,0-3.8-0.1
							c-0.9,0-1.4-0.2-1.8-0.3c-0.4-0.2-0.8-0.4-1.1-0.7c-0.3-0.3-0.5-0.6-0.7-1.1c-0.1-0.3-0.3-0.8-0.3-1.8s-0.1-1.3-0.1-3.8
							s0-2.8,0.1-3.8c0-0.9,0.2-1.4,0.3-1.8c0.2-0.4,0.4-0.8,0.7-1.1c0.3-0.3,0.6-0.5,1.1-0.7c0.3-0.1,0.8-0.3,1.8-0.3
							C366-1184.6,366.3-1184.6,368.8-1184.6 M368.8-1186.3c-2.6,0-2.9,0-3.9,0.1c-1,0-1.7,0.2-2.3,0.4c-0.6,0.2-1.1,0.6-1.7,1.1
							c-0.5,0.5-0.8,1.1-1.1,1.7c-0.2,0.6-0.4,1.3-0.4,2.3s-0.1,1.3-0.1,3.9s0,2.9,0.1,3.9c0,1,0.2,1.7,0.4,2.3
							c0.2,0.6,0.6,1.1,1.1,1.7c0.5,0.5,1.1,0.8,1.7,1.1c0.6,0.2,1.3,0.4,2.3,0.4s1.3,0.1,3.9,0.1s2.9,0,3.9-0.1
							c1,0,1.7-0.2,2.3-0.4c0.6-0.2,1.1-0.6,1.7-1.1c0.5-0.5,0.8-1.1,1.1-1.7c0.2-0.6,0.4-1.3,0.4-2.3s0.1-1.3,0.1-3.9
							s0-2.9-0.1-3.9c0-1-0.2-1.7-0.4-2.3c-0.2-0.6-0.6-1.1-1.1-1.7c-0.5-0.5-1.1-0.8-1.7-1.1c-0.6-0.2-1.3-0.4-2.3-0.4
							C371.7-1186.3,371.4-1186.3,368.8-1186.3"/>
						<path id="XMLID_236_" d="M368.8-1181.7c-2.7,0-4.9,2.2-4.9,4.9s2.2,4.9,4.9,4.9c2.7,0,4.9-2.2,4.9-4.9
							S371.5-1181.7,368.8-1181.7 M368.8-1173.7c-1.7,0-3.2-1.4-3.2-3.2c0-1.7,1.4-3.2,3.2-3.2c1.7,0,3.2,1.4,3.2,3.2
							S370.6-1173.7,368.8-1173.7"/>
						<path id="XMLID_235_" d="M375-1181.9c0,0.6-0.5,1.1-1.1,1.1s-1.1-0.5-1.1-1.1s0.5-1.1,1.1-1.1S375-1182.5,375-1181.9"/>
					</g>
				</g>
			</g>
		</g>
		<g>
			<g>
				<g id="XMLID_233_">
					<path class="st0" d="M522.6-1157.6L522.6-1157.6c-10.8,0-19.5-8.7-19.5-19.5l0,0c0-10.8,8.7-19.5,19.5-19.5l0,0
						c10.8,0,19.5,8.7,19.5,19.5l0,0C542.1-1166.3,533.4-1157.6,522.6-1157.6z"/>
				</g>
			</g>
			<g>
				<g>
					<path class="st1" d="M534.4-1178c-0.2-6.1-5.2-10.9-11.3-10.9s-11,4.8-11.3,10.7c0,0.2,0,0.3,0,0.5c0,2.1,0.6,4.1,1.6,5.8l-2,6
						l6.3-2c1.6,0.9,3.5,1.4,5.5,1.4c6.2,0,11.3-5,11.3-11.2C534.4-1177.9,534.4-1177.9,534.4-1178z M523.1-1168.3
						c-1.9,0-3.7-0.6-5.2-1.6l-3.7,1.2l1.2-3.5c-1.1-1.6-1.8-3.5-1.8-5.5c0-0.3,0-0.6,0-0.9c0.5-4.8,4.5-8.5,9.5-8.5
						s9.1,3.8,9.5,8.7c0,0.2,0,0.5,0,0.7C532.6-1172.5,528.3-1168.3,523.1-1168.3z"/>
					<path class="st1" d="M528.3-1175.5c-0.3-0.1-1.6-0.8-1.9-0.9c-0.3-0.1-0.4-0.1-0.6,0.1c-0.2,0.3-0.7,0.9-0.9,1.1
						s-0.3,0.2-0.6,0.1s-1.2-0.4-2.2-1.4c-0.8-0.7-1.4-1.6-1.5-1.9s0-0.4,0.1-0.6c0.1-0.1,0.3-0.3,0.4-0.5l0.1-0.1
						c0.1-0.1,0.1-0.2,0.2-0.3c0.1-0.2,0-0.3,0-0.5c-0.1-0.1-0.6-1.5-0.9-2c-0.2-0.6-0.5-0.5-0.6-0.5c-0.2,0-0.3,0-0.5,0
						s-0.5,0.1-0.7,0.3c-0.3,0.3-1,0.9-1,2.3c0,0.3,0.1,0.6,0.1,0.9c0.3,1,0.9,1.8,1,1.9c0.1,0.2,1.9,3.1,4.7,4.2s2.8,0.7,3.3,0.7
						s1.6-0.7,1.9-1.3c0.2-0.6,0.2-1.2,0.2-1.3C528.7-1175.3,528.5-1175.4,528.3-1175.5z"/>
				</g>
			</g>
		</g>
	</g>
</g>
<g>
	<g>
		<path d="M50.1,12.1c-0.3,4.1-3.9,5.4-8.4,5.4c-4.6,0-8.4-1.3-8.4-6v-0.9c0-4.6,3.8-6,8.4-6c4.4,0,8.1,1.3,8.4,5.4h-4.9
			c-0.4-1.2-1.8-1.5-3.5-1.5c-2,0-3.6,0.4-3.6,2.4v0.3c0,2,1.6,2.4,3.6,2.4c1.6,0,3-0.3,3.5-1.5H50.1z"/>
		<path d="M55.4,4.9v12.3h-4.8V4.9H55.4z"/>
		<path d="M69,4.9h4.8v12.3h-5.4l-6.6-7.5v7.5H57V4.9h6.6l5.4,6.5V4.9z"/>
		<path d="M75.6,4.9H90V8h-9.6v1.6H90v2.8h-9.6V14H90v3.2H75.6V4.9z"/>
		<path d="M91.6,4.9h6l4.8,6.1l4.8-6.1h6v12.3h-4.8v-6.6l-4.8,6.6h-2.4l-4.8-6.6v6.6h-4.8C91.6,17.2,91.6,4.9,91.6,4.9z"/>
		<path d="M119.2,4.9h5.7l6.6,12.3h-5.4l-1-2.1H119l-1,2.1h-5.4L119.2,4.9z M120.4,12.1h3.4L122,8.5L120.4,12.1z"/>
		<path d="M138.1,10.5h8.3v7H144l-0.2-1.9c-1.4,1.4-3.6,1.9-5.7,1.9c-4.6,0-8.4-1.4-8.4-6v-0.9c0-4.7,3.8-6,8.4-6
			c4.3,0,7.8,1.2,8.3,4.9h-5.1c-0.3-0.4-0.7-0.7-1.3-0.8s-1.2-0.2-1.9-0.2c-2,0-3.6,0.4-3.6,2.4v0.3c0,2,1.6,2.4,3.6,2.4
			c1.9,0,3.1-0.1,3.8-1H138L138.1,10.5L138.1,10.5z"/>
		<path d="M152.5,4.9v12.3h-4.8V4.9H152.5z"/>
		<path d="M169.7,12.1c-0.3,4.1-3.9,5.4-8.4,5.4c-4.6,0-8.4-1.3-8.4-6v-0.9c0-4.6,3.8-6,8.4-6c4.4,0,8.1,1.3,8.4,5.4h-4.9
			c-0.4-1.2-1.8-1.5-3.5-1.5c-2,0-3.6,0.4-3.6,2.4v0.3c0,2,1.6,2.4,3.6,2.4c1.6,0,3-0.3,3.5-1.5H169.7z"/>
		<path d="M174.6,4.9h5.7l6.6,12.3h-5.4l-1-2.1h-6.2l-1,2.1H168L174.6,4.9z M175.8,12.1h3.4l-1.7-3.6L175.8,12.1z"/>
	</g>
	<path d="M14.6,10.8c2.3,0,4.4,0.9,5.9,2.5c1.5,1.5,2.5,3.6,2.5,5.9c0-2.3,0.9-4.4,2.4-5.9s3.6-2.5,6-2.5c-2.3,0-4.4-0.9-5.9-2.5
		C24,6.8,23,4.7,23,2.4c0,2.3-0.9,4.4-2.5,5.9C19,9.8,16.9,10.8,14.6,10.8z"/>
</g>
</svg>
