<?xml version="1.0" encoding="utf-8"?>
<!-- Generator: Adobe Illustrator 26.0.2, SVG Export Plug-In . SVG Version: 6.00 Build 0)  -->
<svg version="1.1" id="Layer_1" xmlns="http://www.w3.org/2000/svg" xmlns:xlink="http://www.w3.org/1999/xlink" x="0px" y="0px"
	 viewBox="0 0 496 576" style="enable-background:new 0 0 496 576;" xml:space="preserve">
<style type="text/css">
	.st0{fill:#FFFFFF;}
</style>
<g>
	<path class="st0" d="M393.8,140.8c0-23.7-19.2-42.8-42.8-42.8h-25H57.4c-23.3,0-42.2,18.9-42.2,42.2v374.7
		c0,23.3,18.9,42.2,42.2,42.2h294.2c23.3,0,42.2-18.9,42.2-42.2V164.6L393.8,140.8z M362.1,180.5V501c0,13.4-10.9,24.3-24.3,24.3
		H71.3C57.9,525.3,47,514.4,47,501V154c0-13.4,10.9-24.3,24.3-24.3h265.9c13.2,0,24,10.6,24.3,23.8L362.1,180.5z"/>
	<path class="st0" d="M303.3,221.2H105.8c-6.7,0-12.2-5.5-12.2-12.2s5.5-12.2,12.2-12.2h197.5c6.7,0,12.2,5.5,12.2,12.2
		S310,221.2,303.3,221.2z"/>
	<path class="st0" d="M303.3,280.4H105.8c-6.7,0-12.2-5.5-12.2-12.2s5.5-12.2,12.2-12.2h197.5c6.7,0,12.2,5.5,12.2,12.2
		C315.5,275,310,280.4,303.3,280.4z"/>
	<path class="st0" d="M303.3,339.7H105.8c-6.7,0-12.2-5.5-12.2-12.2s5.5-12.2,12.2-12.2h197.5c6.7,0,12.2,5.5,12.2,12.2
		S310,339.7,303.3,339.7z"/>
	<path class="st0" d="M303.3,399H105.8c-6.7,0-12.2-5.5-12.2-12.2s5.5-12.2,12.2-12.2h197.5c6.7,0,12.2,5.5,12.2,12.2
		S310,399,303.3,399z"/>
	<path class="st0" d="M303.3,458.3H105.8c-6.7,0-12.2-5.5-12.2-12.2s5.5-12.2,12.2-12.2h197.5c6.7,0,12.2,5.5,12.2,12.2
		S310,458.3,303.3,458.3z"/>
	<path class="st0" d="M437.9,18.9H144.4c-23.3,0-42.2,18.9-42.2,42.2v17.1h31.7V75c0-13.4,10.9-24.3,24.3-24.3h265.9
		c13.2,0,24,10.6,24.3,23.8l0.6,26.9V422c0,13.4-10.9,24.3-24.3,24.3h-11.1V478h25c23.3,0,42.2-18.9,42.2-42.2V85.5V61.8
		C480.8,38.1,461.6,18.9,437.9,18.9L437.9,18.9z"/>
</g>
</svg>
