<?xml version="1.0" encoding="utf-8"?>
<!-- Generator: Adobe Illustrator 26.0.2, SVG Export Plug-In . SVG Version: 6.00 Build 0)  -->
<svg version="1.1" id="Layer_1" xmlns="http://www.w3.org/2000/svg" xmlns:xlink="http://www.w3.org/1999/xlink" x="0px" y="0px"
	 viewBox="0 0 444 320" style="enable-background:new 0 0 444 320;" xml:space="preserve">
<text transform="matrix(1 0 0 1 562.5 1218)" style="font-family:'MyriadPro-Regular'; font-size:12px;">              &lt;p class=&quot;stepDetails&quot;&gt;8. En esta misma ventanam ubique la sección &lt;strong&gt;Elegir firma predeterminada&lt;/strong&gt;. En &lt;strong&gt;Cuenta de correo electrónico&lt;/strong&gt; elija de la lista el correo al que se le asignará la nueva firma. Luego en &lt;strong&gt;Mensajes nuevos&lt;/strong&gt; seleccione la firma que recién creó y haga lo mismo que en &lt;strong&gt;Respuestas o reenvíos&lt;/strong&gt;.&lt;/p&gt; </text>
<path d="M31.6,31.2c-9.3,0-16.8,7.5-16.8,16.8c0,9.3,7.5,16.8,16.8,16.8h380.8c9.3,0,16.8-7.5,16.8-16.8s-7.5-16.8-16.8-16.8H31.6z
	 M31.6,143.2c-9.3,0-16.8,7.5-16.8,16.8c0,9.3,7.5,16.8,16.8,16.8h380.8c9.3,0,16.8-7.5,16.8-16.8s-7.5-16.8-16.8-16.8H31.6z
	 M31.6,255.2c-9.3,0-16.8,7.5-16.8,16.8c0,9.3,7.5,16.8,16.8,16.8h380.8c9.3,0,16.8-7.5,16.8-16.8s-7.5-16.8-16.8-16.8H31.6z"/>
</svg>
